<svg xmlns="http://www.w3.org/2000/svg" viewBox="50 -70 1420 970" font-family="Helvetica,Arial,sans-serif">
<rect x="50" y="-70" width="1420" height="970" fill="#FFFFFF"/>
<text x="120" y="-36" font-size="26" font-weight="700" fill="#1F3A93">1. Governance &amp; Membership</text>
<polyline points="400,356 426,356 674,356 674,125 700,125" fill="none" stroke="#3A5BC7" stroke-width="1.6"/>
<line x1="416.0" y1="356.5" x2="400.0" y2="364.5" stroke="#3A5BC7" stroke-width="1.6"/><line x1="416.0" y1="356.5" x2="400.0" y2="348.5" stroke="#3A5BC7" stroke-width="1.6"/><line x1="416.0" y1="356.5" x2="400.0" y2="356.5" stroke="#3A5BC7" stroke-width="1.6"/>
<line x1="689.0" y1="117.0" x2="689.0" y2="133.0" stroke="#3A5BC7" stroke-width="1.6"/>
<polyline points="580,300 580,274 580,236 799,236 799,210" fill="none" stroke="#3A5BC7" stroke-width="1.6"/>
<line x1="580.0" y1="284.0" x2="588.0" y2="300.0" stroke="#3A5BC7" stroke-width="1.6"/><line x1="580.0" y1="284.0" x2="572.0" y2="300.0" stroke="#3A5BC7" stroke-width="1.6"/><line x1="580.0" y1="284.0" x2="580.0" y2="300.0" stroke="#3A5BC7" stroke-width="1.6"/>
<line x1="791.3" y1="221.0" x2="807.3" y2="221.0" stroke="#3A5BC7" stroke-width="1.6"/>
<polyline points="960,320 960,294 960,236 881,236 881,210" fill="none" stroke="#3A5BC7" stroke-width="1.6"/>
<line x1="960.0" y1="304.0" x2="968.0" y2="320.0" stroke="#3A5BC7" stroke-width="1.6"/><line x1="960.0" y1="304.0" x2="952.0" y2="320.0" stroke="#3A5BC7" stroke-width="1.6"/><line x1="960.0" y1="304.0" x2="960.0" y2="320.0" stroke="#3A5BC7" stroke-width="1.6"/>
<line x1="872.7" y1="221.0" x2="888.7" y2="221.0" stroke="#3A5BC7" stroke-width="1.6"/>
<polyline points="260,620 260,594 260,456 260,456 260,430" fill="none" stroke="#3A5BC7" stroke-width="1.6"/>
<line x1="260.0" y1="604.0" x2="268.0" y2="620.0" stroke="#3A5BC7" stroke-width="1.6"/><line x1="260.0" y1="604.0" x2="252.0" y2="620.0" stroke="#3A5BC7" stroke-width="1.6"/><line x1="260.0" y1="604.0" x2="260.0" y2="620.0" stroke="#3A5BC7" stroke-width="1.6"/>
<line x1="252.0" y1="441.0" x2="268.0" y2="441.0" stroke="#3A5BC7" stroke-width="1.6"/>
<polyline points="600,640 600,614 600,556 580,556 580,530" fill="none" stroke="#3A5BC7" stroke-width="1.6"/>
<line x1="600.0" y1="624.0" x2="608.0" y2="640.0" stroke="#3A5BC7" stroke-width="1.6"/><line x1="600.0" y1="624.0" x2="592.0" y2="640.0" stroke="#3A5BC7" stroke-width="1.6"/><line x1="600.0" y1="624.0" x2="600.0" y2="640.0" stroke="#3A5BC7" stroke-width="1.6"/>
<line x1="572.0" y1="541.0" x2="588.0" y2="541.0" stroke="#3A5BC7" stroke-width="1.6"/>
<polyline points="460,703 434,703 426,703 426,696 400,696" fill="none" stroke="#3A5BC7" stroke-width="1.6"/>
<line x1="444.0" y1="702.7" x2="460.0" y2="694.7" stroke="#3A5BC7" stroke-width="1.6"/><line x1="444.0" y1="702.7" x2="460.0" y2="710.7" stroke="#3A5BC7" stroke-width="1.6"/><line x1="444.0" y1="702.7" x2="460.0" y2="702.7" stroke="#3A5BC7" stroke-width="1.6"/>
<line x1="411.0" y1="704.0" x2="411.0" y2="688.0" stroke="#3A5BC7" stroke-width="1.6"/>
<polyline points="400,754 426,754 434,754 434,747 460,747" fill="none" stroke="#3A5BC7" stroke-width="1.6"/>
<line x1="411.0" y1="762.0" x2="411.0" y2="746.0" stroke="#3A5BC7" stroke-width="1.6"/><circle cx="416.0" cy="754.0" r="4.5" fill="#fff" stroke="#3A5BC7" stroke-width="1.6"/>
<line x1="449.0" y1="739.3" x2="449.0" y2="755.3" stroke="#3A5BC7" stroke-width="1.6"/><circle cx="444.0" cy="747.3" r="4.5" fill="#fff" stroke="#3A5BC7" stroke-width="1.6"/>
<rect x="407" y="745" width="54" height="16" fill="#FFFFFF" opacity="0.9"/>
<text x="434" y="757" font-size="11" fill="#555" text-anchor="middle">current</text>
<polyline points="820,625 794,625 746,625 746,383 720,383" fill="none" stroke="#3A5BC7" stroke-width="1.6"/>
<line x1="804.0" y1="625.0" x2="820.0" y2="617.0" stroke="#3A5BC7" stroke-width="1.6"/><line x1="804.0" y1="625.0" x2="820.0" y2="633.0" stroke="#3A5BC7" stroke-width="1.6"/><line x1="804.0" y1="625.0" x2="820.0" y2="625.0" stroke="#3A5BC7" stroke-width="1.6"/>
<line x1="731.0" y1="390.7" x2="731.0" y2="374.7" stroke="#3A5BC7" stroke-width="1.6"/>
<polyline points="1120,654 1094,654 746,654 746,447 720,447" fill="none" stroke="#3A5BC7" stroke-width="1.6"/>
<line x1="1104.0" y1="654.0" x2="1120.0" y2="646.0" stroke="#3A5BC7" stroke-width="1.6"/><line x1="1104.0" y1="654.0" x2="1120.0" y2="662.0" stroke="#3A5BC7" stroke-width="1.6"/><line x1="1104.0" y1="654.0" x2="1120.0" y2="654.0" stroke="#3A5BC7" stroke-width="1.6"/>
<line x1="731.0" y1="455.3" x2="731.0" y2="439.3" stroke="#3A5BC7" stroke-width="1.6"/>
<polyline points="1120,616 1094,616 426,616 426,394 400,394" fill="none" stroke="#3A5BC7" stroke-width="1.6"/>
<line x1="1104.0" y1="616.0" x2="1120.0" y2="608.0" stroke="#3A5BC7" stroke-width="1.6"/><line x1="1104.0" y1="616.0" x2="1120.0" y2="624.0" stroke="#3A5BC7" stroke-width="1.6"/><line x1="1104.0" y1="616.0" x2="1120.0" y2="616.0" stroke="#3A5BC7" stroke-width="1.6"/>
<line x1="411.0" y1="401.5" x2="411.0" y2="385.5" stroke="#3A5BC7" stroke-width="1.6"/>
<polyline points="1120,374 1094,374 1126,374 1126,395 1100,395" fill="none" stroke="#3A5BC7" stroke-width="1.6"/>
<line x1="1104.0" y1="374.0" x2="1120.0" y2="366.0" stroke="#3A5BC7" stroke-width="1.6"/><line x1="1104.0" y1="374.0" x2="1120.0" y2="382.0" stroke="#3A5BC7" stroke-width="1.6"/><line x1="1104.0" y1="374.0" x2="1120.0" y2="374.0" stroke="#3A5BC7" stroke-width="1.6"/>
<line x1="1111.0" y1="403.0" x2="1111.0" y2="387.0" stroke="#3A5BC7" stroke-width="1.6"/>
<polyline points="1120,356 1094,356 426,356 426,375 400,375" fill="none" stroke="#3A5BC7" stroke-width="1.6"/>
<line x1="1104.0" y1="356.0" x2="1120.0" y2="348.0" stroke="#3A5BC7" stroke-width="1.6"/><line x1="1104.0" y1="356.0" x2="1120.0" y2="364.0" stroke="#3A5BC7" stroke-width="1.6"/><line x1="1104.0" y1="356.0" x2="1120.0" y2="356.0" stroke="#3A5BC7" stroke-width="1.6"/>
<line x1="411.0" y1="383.0" x2="411.0" y2="367.0" stroke="#3A5BC7" stroke-width="1.6"/>
<rect x="700" y="40" width="280" height="170" rx="4" fill="#FFFFFF" stroke="#3A5BC7" stroke-width="1.5"/>
<path d="M 700 70 V 46 Q 700 40 706 40 H 974 Q 980 40 980 46 V 70 Z" fill="#DDEBFF" stroke="#3A5BC7" stroke-width="1.5"/>
<text x="840" y="60" font-size="13" font-weight="700" fill="#12245B" text-anchor="middle">Society</text>
<line x1="700" y1="70" x2="980" y2="70" stroke="#D5DEF2" stroke-width="1"/>
<text x="710" y="84" font-size="11.5" font-weight="700" font-style="normal" fill="#12245B">PK society_id</text>
<line x1="700" y1="90" x2="980" y2="90" stroke="#D5DEF2" stroke-width="1"/>
<text x="710" y="104" font-size="11.5" font-weight="400" font-style="normal" fill="#333">name</text>
<line x1="700" y1="110" x2="980" y2="110" stroke="#D5DEF2" stroke-width="1"/>
<text x="710" y="124" font-size="11.5" font-weight="400" font-style="normal" fill="#333">registration_no</text>
<line x1="700" y1="130" x2="980" y2="130" stroke="#D5DEF2" stroke-width="1"/>
<text x="710" y="144" font-size="11.5" font-weight="400" font-style="normal" fill="#333">state</text>
<line x1="700" y1="150" x2="980" y2="150" stroke="#D5DEF2" stroke-width="1"/>
<text x="710" y="164" font-size="11.5" font-weight="400" font-style="normal" fill="#333">gstin (opt)</text>
<line x1="700" y1="170" x2="980" y2="170" stroke="#D5DEF2" stroke-width="1"/>
<text x="710" y="184" font-size="11.5" font-weight="400" font-style="normal" fill="#333">whatsapp_number</text>
<line x1="700" y1="190" x2="980" y2="190" stroke="#D5DEF2" stroke-width="1"/>
<text x="710" y="204" font-size="11.5" font-weight="400" font-style="normal" fill="#333">razorpay_merchant_id</text>
<rect x="120" y="320" width="280" height="110" rx="4" fill="#FFFFFF" stroke="#3A5BC7" stroke-width="1.5"/>
<path d="M 120 350 V 326 Q 120 320 126 320 H 394 Q 400 320 400 326 V 350 Z" fill="#EAF2FF" stroke="#3A5BC7" stroke-width="1.5"/>
<text x="260" y="340" font-size="13" font-weight="700" fill="#12245B" text-anchor="middle">Project</text>
<line x1="120" y1="350" x2="400" y2="350" stroke="#D5DEF2" stroke-width="1"/>
<text x="130" y="364" font-size="11.5" font-weight="700" font-style="normal" fill="#12245B">PK project_id</text>
<line x1="120" y1="370" x2="400" y2="370" stroke="#D5DEF2" stroke-width="1"/>
<text x="130" y="384" font-size="11.5" font-weight="400" font-style="italic" fill="#333">FK society_id</text>
<line x1="120" y1="390" x2="400" y2="390" stroke="#D5DEF2" stroke-width="1"/>
<text x="130" y="404" font-size="11.5" font-weight="400" font-style="normal" fill="#333">name</text>
<line x1="120" y1="410" x2="400" y2="410" stroke="#D5DEF2" stroke-width="1"/>
<text x="130" y="424" font-size="11.5" font-weight="400" font-style="normal" fill="#333">description</text>
<rect x="440" y="300" width="280" height="230" rx="4" fill="#FFFFFF" stroke="#3A5BC7" stroke-width="1.5"/>
<path d="M 440 330 V 306 Q 440 300 446 300 H 714 Q 720 300 720 306 V 330 Z" fill="#DDEBFF" stroke="#3A5BC7" stroke-width="1.5"/>
<text x="580" y="320" font-size="13" font-weight="700" fill="#12245B" text-anchor="middle">Member</text>
<line x1="440" y1="330" x2="720" y2="330" stroke="#D5DEF2" stroke-width="1"/>
<text x="450" y="344" font-size="11.5" font-weight="700" font-style="normal" fill="#12245B">PK member_id</text>
<line x1="440" y1="350" x2="720" y2="350" stroke="#D5DEF2" stroke-width="1"/>
<text x="450" y="364" font-size="11.5" font-weight="400" font-style="italic" fill="#333">FK society_id</text>
<line x1="440" y1="370" x2="720" y2="370" stroke="#D5DEF2" stroke-width="1"/>
<text x="450" y="384" font-size="11.5" font-weight="400" font-style="normal" fill="#333">joining_date</text>
<line x1="440" y1="390" x2="720" y2="390" stroke="#D5DEF2" stroke-width="1"/>
<text x="450" y="404" font-size="11.5" font-weight="400" font-style="normal" fill="#333">member_status</text>
<line x1="440" y1="410" x2="720" y2="410" stroke="#D5DEF2" stroke-width="1"/>
<text x="450" y="424" font-size="11.5" font-weight="400" font-style="normal" fill="#333">cessation_reason (opt)</text>
<line x1="440" y1="430" x2="720" y2="430" stroke="#D5DEF2" stroke-width="1"/>
<text x="450" y="444" font-size="11.5" font-weight="400" font-style="normal" fill="#333">name</text>
<line x1="440" y1="450" x2="720" y2="450" stroke="#D5DEF2" stroke-width="1"/>
<text x="450" y="464" font-size="11.5" font-weight="400" font-style="normal" fill="#333">email</text>
<line x1="440" y1="470" x2="720" y2="470" stroke="#D5DEF2" stroke-width="1"/>
<text x="450" y="484" font-size="11.5" font-weight="400" font-style="normal" fill="#333">phone</text>
<line x1="440" y1="490" x2="720" y2="490" stroke="#D5DEF2" stroke-width="1"/>
<text x="450" y="504" font-size="11.5" font-weight="400" font-style="normal" fill="#333">address</text>
<line x1="440" y1="510" x2="720" y2="510" stroke="#D5DEF2" stroke-width="1"/>
<text x="450" y="524" font-size="11.5" font-weight="400" font-style="normal" fill="#333">whatsapp_consent</text>
<rect x="120" y="620" width="280" height="210" rx="4" fill="#FFFFFF" stroke="#3A5BC7" stroke-width="1.5"/>
<path d="M 120 650 V 626 Q 120 620 126 620 H 394 Q 400 620 400 626 V 650 Z" fill="#EAF2FF" stroke="#3A5BC7" stroke-width="1.5"/>
<text x="260" y="640" font-size="13" font-weight="700" fill="#12245B" text-anchor="middle">Asset</text>
<line x1="120" y1="650" x2="400" y2="650" stroke="#D5DEF2" stroke-width="1"/>
<text x="130" y="664" font-size="11.5" font-weight="700" font-style="normal" fill="#12245B">PK asset_id</text>
<line x1="120" y1="670" x2="400" y2="670" stroke="#D5DEF2" stroke-width="1"/>
<text x="130" y="684" font-size="11.5" font-weight="400" font-style="italic" fill="#333">FK project_id</text>
<line x1="120" y1="690" x2="400" y2="690" stroke="#D5DEF2" stroke-width="1"/>
<text x="130" y="704" font-size="11.5" font-weight="400" font-style="normal" fill="#333">type (flat|plot|villa|dividend)</text>
<line x1="120" y1="710" x2="400" y2="710" stroke="#D5DEF2" stroke-width="1"/>
<text x="130" y="724" font-size="11.5" font-weight="400" font-style="normal" fill="#333">label</text>
<line x1="120" y1="730" x2="400" y2="730" stroke="#D5DEF2" stroke-width="1"/>
<text x="130" y="744" font-size="11.5" font-weight="400" font-style="normal" fill="#333">attributes</text>
<line x1="120" y1="750" x2="400" y2="750" stroke="#D5DEF2" stroke-width="1"/>
<text x="130" y="764" font-size="11.5" font-weight="400" font-style="normal" fill="#333">status</text>
<line x1="120" y1="770" x2="400" y2="770" stroke="#D5DEF2" stroke-width="1"/>
<text x="130" y="784" font-size="11.5" font-weight="400" font-style="italic" fill="#333">FK current_ownership (opt)</text>
<line x1="120" y1="790" x2="400" y2="790" stroke="#D5DEF2" stroke-width="1"/>
<text x="130" y="804" font-size="11.5" font-weight="400" font-style="normal" fill="#333">created_at</text>
<line x1="120" y1="810" x2="400" y2="810" stroke="#D5DEF2" stroke-width="1"/>
<text x="130" y="824" font-size="11.5" font-weight="400" font-style="normal" fill="#333">updated_at</text>
<rect x="460" y="640" width="280" height="170" rx="4" fill="#FFFFFF" stroke="#3A5BC7" stroke-width="1.5"/>
<path d="M 460 670 V 646 Q 460 640 466 640 H 734 Q 740 640 740 646 V 670 Z" fill="#EAF2FF" stroke="#3A5BC7" stroke-width="1.5"/>
<text x="600" y="660" font-size="13" font-weight="700" fill="#12245B" text-anchor="middle">Ownership</text>
<line x1="460" y1="670" x2="740" y2="670" stroke="#D5DEF2" stroke-width="1"/>
<text x="470" y="684" font-size="11.5" font-weight="700" font-style="normal" fill="#12245B">PK ownership_id</text>
<line x1="460" y1="690" x2="740" y2="690" stroke="#D5DEF2" stroke-width="1"/>
<text x="470" y="704" font-size="11.5" font-weight="400" font-style="italic" fill="#333">FK member_id</text>
<line x1="460" y1="710" x2="740" y2="710" stroke="#D5DEF2" stroke-width="1"/>
<text x="470" y="724" font-size="11.5" font-weight="400" font-style="italic" fill="#333">FK asset_id</text>
<line x1="460" y1="730" x2="740" y2="730" stroke="#D5DEF2" stroke-width="1"/>
<text x="470" y="744" font-size="11.5" font-weight="400" font-style="normal" fill="#333">primary_owner</text>
<line x1="460" y1="750" x2="740" y2="750" stroke="#D5DEF2" stroke-width="1"/>
<text x="470" y="764" font-size="11.5" font-weight="400" font-style="normal" fill="#333">co_owners (info)</text>
<line x1="460" y1="770" x2="740" y2="770" stroke="#D5DEF2" stroke-width="1"/>
<text x="470" y="784" font-size="11.5" font-weight="400" font-style="normal" fill="#333">opened_at</text>
<line x1="460" y1="790" x2="740" y2="790" stroke="#D5DEF2" stroke-width="1"/>
<text x="470" y="804" font-size="11.5" font-weight="400" font-style="normal" fill="#333">closed_at (opt)</text>
<rect x="820" y="320" width="280" height="150" rx="4" fill="#FFFFFF" stroke="#3A5BC7" stroke-width="1.5"/>
<path d="M 820 350 V 326 Q 820 320 826 320 H 1094 Q 1100 320 1100 326 V 350 Z" fill="#EAF2FF" stroke="#3A5BC7" stroke-width="1.5"/>
<text x="960" y="340" font-size="13" font-weight="700" fill="#12245B" text-anchor="middle">Employee</text>
<line x1="820" y1="350" x2="1100" y2="350" stroke="#D5DEF2" stroke-width="1"/>
<text x="830" y="364" font-size="11.5" font-weight="700" font-style="normal" fill="#12245B">PK employee_id</text>
<line x1="820" y1="370" x2="1100" y2="370" stroke="#D5DEF2" stroke-width="1"/>
<text x="830" y="384" font-size="11.5" font-weight="400" font-style="italic" fill="#333">FK society_id</text>
<line x1="820" y1="390" x2="1100" y2="390" stroke="#D5DEF2" stroke-width="1"/>
<text x="830" y="404" font-size="11.5" font-weight="400" font-style="normal" fill="#333">name</text>
<line x1="820" y1="410" x2="1100" y2="410" stroke="#D5DEF2" stroke-width="1"/>
<text x="830" y="424" font-size="11.5" font-weight="400" font-style="normal" fill="#333">salary</text>
<line x1="820" y1="430" x2="1100" y2="430" stroke="#D5DEF2" stroke-width="1"/>
<text x="830" y="444" font-size="11.5" font-weight="400" font-style="normal" fill="#333">admin_login (opt)</text>
<line x1="820" y1="450" x2="1100" y2="450" stroke="#D5DEF2" stroke-width="1"/>
<text x="830" y="464" font-size="11.5" font-weight="400" font-style="normal" fill="#333">capabilities</text>
<rect x="820" y="560" width="280" height="130" rx="4" fill="#FFFFFF" stroke="#3A5BC7" stroke-width="1.5"/>
<path d="M 820 590 V 566 Q 820 560 826 560 H 1094 Q 1100 560 1100 566 V 590 Z" fill="#EAF2FF" stroke="#3A5BC7" stroke-width="1.5"/>
<text x="960" y="580" font-size="13" font-weight="700" fill="#12245B" text-anchor="middle">ManagementRole / EC</text>
<line x1="820" y1="590" x2="1100" y2="590" stroke="#D5DEF2" stroke-width="1"/>
<text x="830" y="604" font-size="11.5" font-weight="700" font-style="normal" fill="#12245B">PK role_id</text>
<line x1="820" y1="610" x2="1100" y2="610" stroke="#D5DEF2" stroke-width="1"/>
<text x="830" y="624" font-size="11.5" font-weight="400" font-style="italic" fill="#333">FK member_id</text>
<line x1="820" y1="630" x2="1100" y2="630" stroke="#D5DEF2" stroke-width="1"/>
<text x="830" y="644" font-size="11.5" font-weight="400" font-style="normal" fill="#333">role (President|VP|GenSec|Treasurer|ExecMember)</text>
<line x1="820" y1="650" x2="1100" y2="650" stroke="#D5DEF2" stroke-width="1"/>
<text x="830" y="664" font-size="11.5" font-weight="400" font-style="normal" fill="#333">effective_from</text>
<line x1="820" y1="670" x2="1100" y2="670" stroke="#D5DEF2" stroke-width="1"/>
<text x="830" y="684" font-size="11.5" font-weight="400" font-style="normal" fill="#333">effective_to (opt)</text>
<rect x="1120" y="560" width="280" height="150" rx="4" fill="#FFFFFF" stroke="#3A5BC7" stroke-width="1.5"/>
<path d="M 1120 590 V 566 Q 1120 560 1126 560 H 1394 Q 1400 560 1400 566 V 590 Z" fill="#EAF2FF" stroke="#3A5BC7" stroke-width="1.5"/>
<text x="1260" y="580" font-size="13" font-weight="700" fill="#12245B" text-anchor="middle">PC Membership</text>
<line x1="1120" y1="590" x2="1400" y2="590" stroke="#D5DEF2" stroke-width="1"/>
<text x="1130" y="604" font-size="11.5" font-weight="700" font-style="normal" fill="#12245B">PK pc_membership_id</text>
<line x1="1120" y1="610" x2="1400" y2="610" stroke="#D5DEF2" stroke-width="1"/>
<text x="1130" y="624" font-size="11.5" font-weight="400" font-style="italic" fill="#333">FK project_id</text>
<line x1="1120" y1="630" x2="1400" y2="630" stroke="#D5DEF2" stroke-width="1"/>
<text x="1130" y="644" font-size="11.5" font-weight="400" font-style="italic" fill="#333">FK member_id</text>
<line x1="1120" y1="650" x2="1400" y2="650" stroke="#D5DEF2" stroke-width="1"/>
<text x="1130" y="664" font-size="11.5" font-weight="400" font-style="normal" fill="#333">is_chair</text>
<line x1="1120" y1="670" x2="1400" y2="670" stroke="#D5DEF2" stroke-width="1"/>
<text x="1130" y="684" font-size="11.5" font-weight="400" font-style="normal" fill="#333">effective_from</text>
<line x1="1120" y1="690" x2="1400" y2="690" stroke="#D5DEF2" stroke-width="1"/>
<text x="1130" y="704" font-size="11.5" font-weight="400" font-style="normal" fill="#333">effective_to (opt)</text>
<rect x="1120" y="320" width="280" height="90" rx="4" fill="#FFFFFF" stroke="#3A5BC7" stroke-width="1.5"/>
<path d="M 1120 350 V 326 Q 1120 320 1126 320 H 1394 Q 1400 320 1400 326 V 350 Z" fill="#EAF2FF" stroke="#3A5BC7" stroke-width="1.5"/>
<text x="1260" y="340" font-size="13" font-weight="700" fill="#12245B" text-anchor="middle">EmployeeAssetViewGrant</text>
<line x1="1120" y1="350" x2="1400" y2="350" stroke="#D5DEF2" stroke-width="1"/>
<text x="1130" y="364" font-size="11.5" font-weight="700" font-style="normal" fill="#12245B">PK grant_id</text>
<line x1="1120" y1="370" x2="1400" y2="370" stroke="#D5DEF2" stroke-width="1"/>
<text x="1130" y="384" font-size="11.5" font-weight="400" font-style="italic" fill="#333">FK employee_id</text>
<line x1="1120" y1="390" x2="1400" y2="390" stroke="#D5DEF2" stroke-width="1"/>
<text x="1130" y="404" font-size="11.5" font-weight="400" font-style="italic" fill="#333">FK project_id</text>
</svg>