<svg xmlns="http://www.w3.org/2000/svg" viewBox="70 -30 1480 650" font-family="Helvetica,Arial,sans-serif">
<rect x="70" y="-30" width="1480" height="650" fill="#FFFFFF"/>
<text x="140" y="4" font-size="26" font-weight="700" fill="#1F3A93">3. Vendors &amp; Work Orders</text>
<polyline points="480,185 454,185 446,185 446,155 420,155" fill="none" stroke="#3A5BC7" stroke-width="1.6"/>
<line x1="464.0" y1="185.0" x2="480.0" y2="177.0" stroke="#3A5BC7" stroke-width="1.6"/><line x1="464.0" y1="185.0" x2="480.0" y2="193.0" stroke="#3A5BC7" stroke-width="1.6"/><line x1="464.0" y1="185.0" x2="480.0" y2="185.0" stroke="#3A5BC7" stroke-width="1.6"/>
<line x1="431.0" y1="163.0" x2="431.0" y2="147.0" stroke="#3A5BC7" stroke-width="1.6"/>
<polyline points="620,290 620,316 620,394 620,394 620,420" fill="none" stroke="#3A5BC7" stroke-width="1.6"/>
<line x1="620.0" y1="306.0" x2="612.0" y2="290.0" stroke="#3A5BC7" stroke-width="1.6"/><line x1="620.0" y1="306.0" x2="628.0" y2="290.0" stroke="#3A5BC7" stroke-width="1.6"/><line x1="620.0" y1="306.0" x2="620.0" y2="290.0" stroke="#3A5BC7" stroke-width="1.6"/>
<line x1="628.0" y1="409.0" x2="612.0" y2="409.0" stroke="#3A5BC7" stroke-width="1.6"/><circle cx="620.0" cy="404.0" r="4.5" fill="#fff" stroke="#3A5BC7" stroke-width="1.6"/>
<polyline points="860,149 834,149 786,149 786,185 760,185" fill="none" stroke="#3A5BC7" stroke-width="1.6"/>
<line x1="844.0" y1="149.3" x2="860.0" y2="141.3" stroke="#3A5BC7" stroke-width="1.6"/><line x1="844.0" y1="149.3" x2="860.0" y2="157.3" stroke="#3A5BC7" stroke-width="1.6"/><line x1="844.0" y1="149.3" x2="860.0" y2="149.3" stroke="#3A5BC7" stroke-width="1.6"/><line x1="840.0" y1="141.3" x2="840.0" y2="157.3" stroke="#3A5BC7" stroke-width="1.6"/>
<line x1="771.0" y1="193.0" x2="771.0" y2="177.0" stroke="#3A5BC7" stroke-width="1.6"/>
<polyline points="860,201 834,201 446,201 446,445 420,445" fill="none" stroke="#3A5BC7" stroke-width="1.6"/>
<line x1="844.0" y1="200.7" x2="860.0" y2="192.7" stroke="#3A5BC7" stroke-width="1.6"/><line x1="844.0" y1="200.7" x2="860.0" y2="208.7" stroke="#3A5BC7" stroke-width="1.6"/><line x1="844.0" y1="200.7" x2="860.0" y2="200.7" stroke="#3A5BC7" stroke-width="1.6"/>
<line x1="431.0" y1="453.0" x2="431.0" y2="437.0" stroke="#3A5BC7" stroke-width="1.6"/>
<rect x="406" y="192" width="81" height="16" fill="#FFFFFF" opacity="0.9"/>
<text x="446" y="204" font-size="11" fill="#555" text-anchor="middle">verified by</text>
<path d="M 1140 156 h 34 v 54 h -34" fill="none" stroke="#3A5BC7" stroke-width="1.6"/>
<text x="1178" y="186" font-size="11" fill="#3A5BC7">resubmission_of</text>
<polyline points="1000,420 1000,394 1000,296 1000,296 1000,270" fill="none" stroke="#3A5BC7" stroke-width="1.6"/>
<line x1="1000.0" y1="404.0" x2="1008.0" y2="420.0" stroke="#3A5BC7" stroke-width="1.6"/><line x1="1000.0" y1="404.0" x2="992.0" y2="420.0" stroke="#3A5BC7" stroke-width="1.6"/><line x1="1000.0" y1="404.0" x2="1000.0" y2="420.0" stroke="#3A5BC7" stroke-width="1.6"/>
<line x1="992.0" y1="281.0" x2="1008.0" y2="281.0" stroke="#3A5BC7" stroke-width="1.6"/>
<polyline points="1140,485 1166,485 1174,485 1174,445 1200,445" fill="none" stroke="#3A5BC7" stroke-width="1.6"/>
<line x1="1156.0" y1="485.0" x2="1140.0" y2="493.0" stroke="#3A5BC7" stroke-width="1.6"/><line x1="1156.0" y1="485.0" x2="1140.0" y2="477.0" stroke="#3A5BC7" stroke-width="1.6"/><line x1="1156.0" y1="485.0" x2="1140.0" y2="485.0" stroke="#3A5BC7" stroke-width="1.6"/>
<line x1="1189.0" y1="437.0" x2="1189.0" y2="453.0" stroke="#3A5BC7" stroke-width="1.6"/>
<rect x="140" y="80" width="280" height="150" rx="4" fill="#FFFFFF" stroke="#3A5BC7" stroke-width="1.5"/>
<path d="M 140 110 V 86 Q 140 80 146 80 H 414 Q 420 80 420 86 V 110 Z" fill="#EAF2FF" stroke="#3A5BC7" stroke-width="1.5"/>
<text x="280" y="100" font-size="13" font-weight="700" fill="#12245B" text-anchor="middle">Vendor</text>
<line x1="140" y1="110" x2="420" y2="110" stroke="#D5DEF2" stroke-width="1"/>
<text x="150" y="124" font-size="11.5" font-weight="700" font-style="normal" fill="#12245B">PK vendor_id</text>
<line x1="140" y1="130" x2="420" y2="130" stroke="#D5DEF2" stroke-width="1"/>
<text x="150" y="144" font-size="11.5" font-weight="400" font-style="italic" fill="#333">FK society_id</text>
<line x1="140" y1="150" x2="420" y2="150" stroke="#D5DEF2" stroke-width="1"/>
<text x="150" y="164" font-size="11.5" font-weight="400" font-style="normal" fill="#333">name</text>
<line x1="140" y1="170" x2="420" y2="170" stroke="#D5DEF2" stroke-width="1"/>
<text x="150" y="184" font-size="11.5" font-weight="400" font-style="normal" fill="#333">gstin (opt)</text>
<line x1="140" y1="190" x2="420" y2="190" stroke="#D5DEF2" stroke-width="1"/>
<text x="150" y="204" font-size="11.5" font-weight="400" font-style="normal" fill="#333">contact</text>
<line x1="140" y1="210" x2="420" y2="210" stroke="#D5DEF2" stroke-width="1"/>
<text x="150" y="224" font-size="11.5" font-weight="400" font-style="normal" fill="#333">bank_details</text>
<rect x="480" y="80" width="280" height="210" rx="4" fill="#FFFFFF" stroke="#3A5BC7" stroke-width="1.5"/>
<path d="M 480 110 V 86 Q 480 80 486 80 H 754 Q 760 80 760 86 V 110 Z" fill="#EAF2FF" stroke="#3A5BC7" stroke-width="1.5"/>
<text x="620" y="100" font-size="13" font-weight="700" fill="#12245B" text-anchor="middle">WorkOrder</text>
<line x1="480" y1="110" x2="760" y2="110" stroke="#D5DEF2" stroke-width="1"/>
<text x="490" y="124" font-size="11.5" font-weight="700" font-style="normal" fill="#12245B">PK work_order_id</text>
<line x1="480" y1="130" x2="760" y2="130" stroke="#D5DEF2" stroke-width="1"/>
<text x="490" y="144" font-size="11.5" font-weight="400" font-style="italic" fill="#333">FK vendor_id</text>
<line x1="480" y1="150" x2="760" y2="150" stroke="#D5DEF2" stroke-width="1"/>
<text x="490" y="164" font-size="11.5" font-weight="400" font-style="italic" fill="#333">FK project_id (opt)</text>
<line x1="480" y1="170" x2="760" y2="170" stroke="#D5DEF2" stroke-width="1"/>
<text x="490" y="184" font-size="11.5" font-weight="400" font-style="normal" fill="#333">scope</text>
<line x1="480" y1="190" x2="760" y2="190" stroke="#D5DEF2" stroke-width="1"/>
<text x="490" y="204" font-size="11.5" font-weight="400" font-style="normal" fill="#333">value</text>
<line x1="480" y1="210" x2="760" y2="210" stroke="#D5DEF2" stroke-width="1"/>
<text x="490" y="224" font-size="11.5" font-weight="400" font-style="normal" fill="#333">issue_date</text>
<line x1="480" y1="230" x2="760" y2="230" stroke="#D5DEF2" stroke-width="1"/>
<text x="490" y="244" font-size="11.5" font-weight="400" font-style="normal" fill="#333">validity_end (opt)</text>
<line x1="480" y1="250" x2="760" y2="250" stroke="#D5DEF2" stroke-width="1"/>
<text x="490" y="264" font-size="11.5" font-weight="400" font-style="normal" fill="#333">status</text>
<line x1="480" y1="270" x2="760" y2="270" stroke="#D5DEF2" stroke-width="1"/>
<text x="490" y="284" font-size="11.5" font-weight="400" font-style="normal" fill="#333">notes</text>
<rect x="860" y="80" width="280" height="190" rx="4" fill="#FFFFFF" stroke="#3A5BC7" stroke-width="1.5"/>
<path d="M 860 110 V 86 Q 860 80 866 80 H 1134 Q 1140 80 1140 86 V 110 Z" fill="#EAF2FF" stroke="#3A5BC7" stroke-width="1.5"/>
<text x="1000" y="100" font-size="13" font-weight="700" fill="#12245B" text-anchor="middle">Invoice</text>
<line x1="860" y1="110" x2="1140" y2="110" stroke="#D5DEF2" stroke-width="1"/>
<text x="870" y="124" font-size="11.5" font-weight="700" font-style="normal" fill="#12245B">PK invoice_id</text>
<line x1="860" y1="130" x2="1140" y2="130" stroke="#D5DEF2" stroke-width="1"/>
<text x="870" y="144" font-size="11.5" font-weight="400" font-style="italic" fill="#333">FK work_order_id</text>
<line x1="860" y1="150" x2="1140" y2="150" stroke="#D5DEF2" stroke-width="1"/>
<text x="870" y="164" font-size="11.5" font-weight="400" font-style="normal" fill="#333">amount</text>
<line x1="860" y1="170" x2="1140" y2="170" stroke="#D5DEF2" stroke-width="1"/>
<text x="870" y="184" font-size="11.5" font-weight="400" font-style="normal" fill="#333">gst_amount</text>
<line x1="860" y1="190" x2="1140" y2="190" stroke="#D5DEF2" stroke-width="1"/>
<text x="870" y="204" font-size="11.5" font-weight="400" font-style="normal" fill="#333">status</text>
<line x1="860" y1="210" x2="1140" y2="210" stroke="#D5DEF2" stroke-width="1"/>
<text x="870" y="224" font-size="11.5" font-weight="400" font-style="italic" fill="#333">FK verified_by (employee)</text>
<line x1="860" y1="230" x2="1140" y2="230" stroke="#D5DEF2" stroke-width="1"/>
<text x="870" y="244" font-size="11.5" font-weight="400" font-style="italic" fill="#333">FK resubmission_of (opt)</text>
<line x1="860" y1="250" x2="1140" y2="250" stroke="#D5DEF2" stroke-width="1"/>
<text x="870" y="264" font-size="11.5" font-weight="400" font-style="normal" fill="#333">submitted_at</text>
<rect x="860" y="420" width="280" height="130" rx="4" fill="#FFFFFF" stroke="#3A5BC7" stroke-width="1.5"/>
<path d="M 860 450 V 426 Q 860 420 866 420 H 1134 Q 1140 420 1140 426 V 450 Z" fill="#EAF2FF" stroke="#3A5BC7" stroke-width="1.5"/>
<text x="1000" y="440" font-size="13" font-weight="700" fill="#12245B" text-anchor="middle">InvoiceApproval</text>
<line x1="860" y1="450" x2="1140" y2="450" stroke="#D5DEF2" stroke-width="1"/>
<text x="870" y="464" font-size="11.5" font-weight="700" font-style="normal" fill="#12245B">PK approval_id</text>
<line x1="860" y1="470" x2="1140" y2="470" stroke="#D5DEF2" stroke-width="1"/>
<text x="870" y="484" font-size="11.5" font-weight="400" font-style="italic" fill="#333">FK invoice_id</text>
<line x1="860" y1="490" x2="1140" y2="490" stroke="#D5DEF2" stroke-width="1"/>
<text x="870" y="504" font-size="11.5" font-weight="400" font-style="italic" fill="#333">FK ec_member_id</text>
<line x1="860" y1="510" x2="1140" y2="510" stroke="#D5DEF2" stroke-width="1"/>
<text x="870" y="524" font-size="11.5" font-weight="400" font-style="normal" fill="#333">approved_at</text>
<line x1="860" y1="530" x2="1140" y2="530" stroke="#D5DEF2" stroke-width="1"/>
<text x="870" y="544" font-size="11.5" font-weight="400" font-style="normal" fill="#333">is_override</text>
<rect x="480" y="420" width="280" height="50" rx="4" fill="#FFFFFF" stroke="#3A5BC7" stroke-width="1.5"/>
<path d="M 480 450 V 426 Q 480 420 486 420 H 754 Q 760 420 760 426 V 450 Z" fill="#F0F0F0" stroke="#3A5BC7" stroke-width="1.5"/>
<text x="620" y="440" font-size="13" font-weight="700" fill="#12245B" text-anchor="middle">Project (ref → other tab)</text>
<line x1="480" y1="450" x2="760" y2="450" stroke="#D5DEF2" stroke-width="1"/>
<text x="490" y="464" font-size="11.5" font-weight="700" font-style="normal" fill="#12245B">PK project_id</text>
<rect x="140" y="420" width="280" height="50" rx="4" fill="#FFFFFF" stroke="#3A5BC7" stroke-width="1.5"/>
<path d="M 140 450 V 426 Q 140 420 146 420 H 414 Q 420 420 420 426 V 450 Z" fill="#F0F0F0" stroke="#3A5BC7" stroke-width="1.5"/>
<text x="280" y="440" font-size="13" font-weight="700" fill="#12245B" text-anchor="middle">Employee (ref → other tab)</text>
<line x1="140" y1="450" x2="420" y2="450" stroke="#D5DEF2" stroke-width="1"/>
<text x="150" y="464" font-size="11.5" font-weight="700" font-style="normal" fill="#12245B">PK employee_id</text>
<rect x="1200" y="420" width="280" height="50" rx="4" fill="#FFFFFF" stroke="#3A5BC7" stroke-width="1.5"/>
<path d="M 1200 450 V 426 Q 1200 420 1206 420 H 1474 Q 1480 420 1480 426 V 450 Z" fill="#F0F0F0" stroke="#3A5BC7" stroke-width="1.5"/>
<text x="1340" y="440" font-size="13" font-weight="700" fill="#12245B" text-anchor="middle">Member (EC) (ref → other tab)</text>
<line x1="1200" y1="450" x2="1480" y2="450" stroke="#D5DEF2" stroke-width="1"/>
<text x="1210" y="464" font-size="11.5" font-weight="700" font-style="normal" fill="#12245B">PK member_id</text>
</svg>