<svg xmlns="http://www.w3.org/2000/svg" viewBox="50 -30 1280 850" font-family="Helvetica,Arial,sans-serif">
<rect x="50" y="-30" width="1280" height="850" fill="#FFFFFF"/>
<text x="120" y="4" font-size="26" font-weight="700" fill="#1F3A93">4. Documents &amp; Communication</text>
<polyline points="204,410 204,436 204,444 260,444 260,470" fill="none" stroke="#3A5BC7" stroke-width="1.6"/>
<line x1="204.0" y1="426.0" x2="196.0" y2="410.0" stroke="#3A5BC7" stroke-width="1.6"/><line x1="204.0" y1="426.0" x2="212.0" y2="410.0" stroke="#3A5BC7" stroke-width="1.6"/><line x1="204.0" y1="426.0" x2="204.0" y2="410.0" stroke="#3A5BC7" stroke-width="1.6"/>
<line x1="268.0" y1="459.0" x2="252.0" y2="459.0" stroke="#3A5BC7" stroke-width="1.6"/>
<polyline points="336,410 336,436 336,674 619,674 619,700" fill="none" stroke="#3A5BC7" stroke-width="1.6"/>
<line x1="336.0" y1="426.0" x2="328.0" y2="410.0" stroke="#3A5BC7" stroke-width="1.6"/><line x1="336.0" y1="426.0" x2="344.0" y2="410.0" stroke="#3A5BC7" stroke-width="1.6"/><line x1="336.0" y1="426.0" x2="336.0" y2="410.0" stroke="#3A5BC7" stroke-width="1.6"/>
<line x1="627.3" y1="689.0" x2="611.3" y2="689.0" stroke="#3A5BC7" stroke-width="1.6"/><circle cx="619.3" cy="684.0" r="4.5" fill="#fff" stroke="#3A5BC7" stroke-width="1.6"/>
<polyline points="420,245 446,245 794,245 794,723 820,723" fill="none" stroke="#3A5BC7" stroke-width="1.6"/>
<line x1="436.0" y1="245.0" x2="420.0" y2="253.0" stroke="#3A5BC7" stroke-width="1.6"/><line x1="436.0" y1="245.0" x2="420.0" y2="237.0" stroke="#3A5BC7" stroke-width="1.6"/><line x1="436.0" y1="245.0" x2="420.0" y2="245.0" stroke="#3A5BC7" stroke-width="1.6"/>
<line x1="809.0" y1="714.7" x2="809.0" y2="730.7" stroke="#3A5BC7" stroke-width="1.6"/><circle cx="804.0" cy="722.7" r="4.5" fill="#fff" stroke="#3A5BC7" stroke-width="1.6"/>
<polyline points="260,600 260,574 260,436 270,436 270,410" fill="none" stroke="#3A5BC7" stroke-width="1.6"/>
<line x1="260.0" y1="584.0" x2="268.0" y2="600.0" stroke="#3A5BC7" stroke-width="1.6"/><line x1="260.0" y1="584.0" x2="252.0" y2="600.0" stroke="#3A5BC7" stroke-width="1.6"/><line x1="260.0" y1="584.0" x2="260.0" y2="600.0" stroke="#3A5BC7" stroke-width="1.6"/>
<line x1="262.0" y1="421.0" x2="278.0" y2="421.0" stroke="#3A5BC7" stroke-width="1.6"/>
<polyline points="801,290 801,316 801,674 919,674 919,700" fill="none" stroke="#3A5BC7" stroke-width="1.6"/>
<line x1="800.7" y1="306.0" x2="792.7" y2="290.0" stroke="#3A5BC7" stroke-width="1.6"/><line x1="800.7" y1="306.0" x2="808.7" y2="290.0" stroke="#3A5BC7" stroke-width="1.6"/><line x1="800.7" y1="306.0" x2="800.7" y2="290.0" stroke="#3A5BC7" stroke-width="1.6"/>
<line x1="927.3" y1="689.0" x2="911.3" y2="689.0" stroke="#3A5BC7" stroke-width="1.6"/>
<rect x="777" y="665" width="48" height="16" fill="#FFFFFF" opacity="0.9"/>
<text x="801" y="677" font-size="11" fill="#555" text-anchor="middle">author</text>
<polyline points="719,290 719,316 719,674 701,674 701,700" fill="none" stroke="#3A5BC7" stroke-width="1.6"/>
<line x1="719.3" y1="306.0" x2="711.3" y2="290.0" stroke="#3A5BC7" stroke-width="1.6"/><line x1="719.3" y1="306.0" x2="727.3" y2="290.0" stroke="#3A5BC7" stroke-width="1.6"/><line x1="719.3" y1="306.0" x2="719.3" y2="290.0" stroke="#3A5BC7" stroke-width="1.6"/>
<line x1="708.7" y1="689.0" x2="692.7" y2="689.0" stroke="#3A5BC7" stroke-width="1.6"/><circle cx="700.7" cy="684.0" r="4.5" fill="#fff" stroke="#3A5BC7" stroke-width="1.6"/>
<polyline points="900,564 926,564 794,564 794,727 820,727" fill="none" stroke="#3A5BC7" stroke-width="1.6"/>
<line x1="916.0" y1="564.0" x2="900.0" y2="572.0" stroke="#3A5BC7" stroke-width="1.6"/><line x1="916.0" y1="564.0" x2="900.0" y2="556.0" stroke="#3A5BC7" stroke-width="1.6"/><line x1="916.0" y1="564.0" x2="900.0" y2="564.0" stroke="#3A5BC7" stroke-width="1.6"/>
<line x1="809.0" y1="719.3" x2="809.0" y2="735.3" stroke="#3A5BC7" stroke-width="1.6"/>
<rect x="767" y="555" width="54" height="16" fill="#FFFFFF" opacity="0.9"/>
<text x="794" y="567" font-size="11" fill="#555" text-anchor="middle">sent by</text>
<polyline points="980,535 954,535 926,535 926,526 900,526" fill="none" stroke="#3A5BC7" stroke-width="1.6"/>
<line x1="964.0" y1="535.0" x2="980.0" y2="527.0" stroke="#3A5BC7" stroke-width="1.6"/><line x1="964.0" y1="535.0" x2="980.0" y2="543.0" stroke="#3A5BC7" stroke-width="1.6"/><line x1="964.0" y1="535.0" x2="980.0" y2="535.0" stroke="#3A5BC7" stroke-width="1.6"/>
<line x1="911.0" y1="534.0" x2="911.0" y2="518.0" stroke="#3A5BC7" stroke-width="1.6"/>
<polyline points="1120,600 1120,626 1120,674 1001,674 1001,700" fill="none" stroke="#3A5BC7" stroke-width="1.6"/>
<line x1="1120.0" y1="616.0" x2="1112.0" y2="600.0" stroke="#3A5BC7" stroke-width="1.6"/><line x1="1120.0" y1="616.0" x2="1128.0" y2="600.0" stroke="#3A5BC7" stroke-width="1.6"/><line x1="1120.0" y1="616.0" x2="1120.0" y2="600.0" stroke="#3A5BC7" stroke-width="1.6"/>
<line x1="1008.7" y1="689.0" x2="992.7" y2="689.0" stroke="#3A5BC7" stroke-width="1.6"/>
<rect x="120" y="80" width="300" height="330" rx="4" fill="#FFFFFF" stroke="#3A5BC7" stroke-width="1.5"/>
<path d="M 120 110 V 86 Q 120 80 126 80 H 414 Q 420 80 420 86 V 110 Z" fill="#EAF2FF" stroke="#3A5BC7" stroke-width="1.5"/>
<text x="270" y="100" font-size="13" font-weight="700" fill="#12245B" text-anchor="middle">Document</text>
<line x1="120" y1="110" x2="420" y2="110" stroke="#D5DEF2" stroke-width="1"/>
<text x="130" y="124" font-size="11.5" font-weight="700" font-style="normal" fill="#12245B">PK document_id</text>
<line x1="120" y1="130" x2="420" y2="130" stroke="#D5DEF2" stroke-width="1"/>
<text x="130" y="144" font-size="11.5" font-weight="400" font-style="normal" fill="#333">level (society|project|member)</text>
<line x1="120" y1="150" x2="420" y2="150" stroke="#D5DEF2" stroke-width="1"/>
<text x="130" y="164" font-size="11.5" font-weight="400" font-style="italic" fill="#333">FK project_id (opt)</text>
<line x1="120" y1="170" x2="420" y2="170" stroke="#D5DEF2" stroke-width="1"/>
<text x="130" y="184" font-size="11.5" font-weight="400" font-style="italic" fill="#333">FK member_id (opt)</text>
<line x1="120" y1="190" x2="420" y2="190" stroke="#D5DEF2" stroke-width="1"/>
<text x="130" y="204" font-size="11.5" font-weight="400" font-style="normal" fill="#333">title</text>
<line x1="120" y1="210" x2="420" y2="210" stroke="#D5DEF2" stroke-width="1"/>
<text x="130" y="224" font-size="11.5" font-weight="400" font-style="normal" fill="#333">category</text>
<line x1="120" y1="230" x2="420" y2="230" stroke="#D5DEF2" stroke-width="1"/>
<text x="130" y="244" font-size="11.5" font-weight="400" font-style="normal" fill="#333">tags</text>
<line x1="120" y1="250" x2="420" y2="250" stroke="#D5DEF2" stroke-width="1"/>
<text x="130" y="264" font-size="11.5" font-weight="400" font-style="normal" fill="#333">notes</text>
<line x1="120" y1="270" x2="420" y2="270" stroke="#D5DEF2" stroke-width="1"/>
<text x="130" y="284" font-size="11.5" font-weight="400" font-style="normal" fill="#333">file_name</text>
<line x1="120" y1="290" x2="420" y2="290" stroke="#D5DEF2" stroke-width="1"/>
<text x="130" y="304" font-size="11.5" font-weight="400" font-style="normal" fill="#333">mime_type</text>
<line x1="120" y1="310" x2="420" y2="310" stroke="#D5DEF2" stroke-width="1"/>
<text x="130" y="324" font-size="11.5" font-weight="400" font-style="normal" fill="#333">size</text>
<line x1="120" y1="330" x2="420" y2="330" stroke="#D5DEF2" stroke-width="1"/>
<text x="130" y="344" font-size="11.5" font-weight="400" font-style="normal" fill="#333">checksum</text>
<line x1="120" y1="350" x2="420" y2="350" stroke="#D5DEF2" stroke-width="1"/>
<text x="130" y="364" font-size="11.5" font-weight="400" font-style="italic" fill="#333">FK uploaded_by</text>
<line x1="120" y1="370" x2="420" y2="370" stroke="#D5DEF2" stroke-width="1"/>
<text x="130" y="384" font-size="11.5" font-weight="400" font-style="normal" fill="#333">status</text>
<line x1="120" y1="390" x2="420" y2="390" stroke="#D5DEF2" stroke-width="1"/>
<text x="130" y="404" font-size="11.5" font-weight="400" font-style="normal" fill="#333">member_visible</text>
<rect x="120" y="470" width="280" height="70" rx="4" fill="#FFFFFF" stroke="#3A5BC7" stroke-width="1.5"/>
<path d="M 120 500 V 476 Q 120 470 126 470 H 394 Q 400 470 400 476 V 500 Z" fill="#EAF2FF" stroke="#3A5BC7" stroke-width="1.5"/>
<text x="260" y="490" font-size="13" font-weight="700" fill="#12245B" text-anchor="middle">DocumentCategory</text>
<line x1="120" y1="500" x2="400" y2="500" stroke="#D5DEF2" stroke-width="1"/>
<text x="130" y="514" font-size="11.5" font-weight="700" font-style="normal" fill="#12245B">PK category_id</text>
<line x1="120" y1="520" x2="400" y2="520" stroke="#D5DEF2" stroke-width="1"/>
<text x="130" y="534" font-size="11.5" font-weight="400" font-style="normal" fill="#333">name</text>
<rect x="120" y="600" width="280" height="90" rx="4" fill="#FFFFFF" stroke="#3A5BC7" stroke-width="1.5"/>
<path d="M 120 630 V 606 Q 120 600 126 600 H 394 Q 400 600 400 606 V 630 Z" fill="#FFF6DD" stroke="#3A5BC7" stroke-width="1.5"/>
<text x="260" y="620" font-size="13" font-weight="700" fill="#12245B" text-anchor="middle">LedgerDocumentLink</text>
<line x1="120" y1="630" x2="400" y2="630" stroke="#D5DEF2" stroke-width="1"/>
<text x="130" y="644" font-size="11.5" font-weight="700" font-style="normal" fill="#12245B">PK link_id</text>
<line x1="120" y1="650" x2="400" y2="650" stroke="#D5DEF2" stroke-width="1"/>
<text x="130" y="664" font-size="11.5" font-weight="400" font-style="italic" fill="#333">FK document_id</text>
<line x1="120" y1="670" x2="400" y2="670" stroke="#D5DEF2" stroke-width="1"/>
<text x="130" y="684" font-size="11.5" font-weight="400" font-style="italic" fill="#333">FK journal_entry_id</text>
<rect x="620" y="80" width="280" height="210" rx="4" fill="#FFFFFF" stroke="#3A5BC7" stroke-width="1.5"/>
<path d="M 620 110 V 86 Q 620 80 626 80 H 894 Q 900 80 900 86 V 110 Z" fill="#EAF2FF" stroke="#3A5BC7" stroke-width="1.5"/>
<text x="760" y="100" font-size="13" font-weight="700" fill="#12245B" text-anchor="middle">BulletinPost</text>
<line x1="620" y1="110" x2="900" y2="110" stroke="#D5DEF2" stroke-width="1"/>
<text x="630" y="124" font-size="11.5" font-weight="700" font-style="normal" fill="#12245B">PK post_id</text>
<line x1="620" y1="130" x2="900" y2="130" stroke="#D5DEF2" stroke-width="1"/>
<text x="630" y="144" font-size="11.5" font-weight="400" font-style="normal" fill="#333">scope (society|project)</text>
<line x1="620" y1="150" x2="900" y2="150" stroke="#D5DEF2" stroke-width="1"/>
<text x="630" y="164" font-size="11.5" font-weight="400" font-style="italic" fill="#333">FK project_id (opt)</text>
<line x1="620" y1="170" x2="900" y2="170" stroke="#D5DEF2" stroke-width="1"/>
<text x="630" y="184" font-size="11.5" font-weight="400" font-style="italic" fill="#333">FK author_member_id</text>
<line x1="620" y1="190" x2="900" y2="190" stroke="#D5DEF2" stroke-width="1"/>
<text x="630" y="204" font-size="11.5" font-weight="400" font-style="normal" fill="#333">title</text>
<line x1="620" y1="210" x2="900" y2="210" stroke="#D5DEF2" stroke-width="1"/>
<text x="630" y="224" font-size="11.5" font-weight="400" font-style="normal" fill="#333">body</text>
<line x1="620" y1="230" x2="900" y2="230" stroke="#D5DEF2" stroke-width="1"/>
<text x="630" y="244" font-size="11.5" font-weight="400" font-style="normal" fill="#333">pinned</text>
<line x1="620" y1="250" x2="900" y2="250" stroke="#D5DEF2" stroke-width="1"/>
<text x="630" y="264" font-size="11.5" font-weight="400" font-style="normal" fill="#333">posted_at</text>
<line x1="620" y1="270" x2="900" y2="270" stroke="#D5DEF2" stroke-width="1"/>
<text x="630" y="284" font-size="11.5" font-weight="400" font-style="normal" fill="#333">edited_at (opt)</text>
<rect x="620" y="470" width="280" height="150" rx="4" fill="#FFFFFF" stroke="#3A5BC7" stroke-width="1.5"/>
<path d="M 620 500 V 476 Q 620 470 626 470 H 894 Q 900 470 900 476 V 500 Z" fill="#EAF2FF" stroke="#3A5BC7" stroke-width="1.5"/>
<text x="760" y="490" font-size="13" font-weight="700" fill="#12245B" text-anchor="middle">DirectMessage</text>
<line x1="620" y1="500" x2="900" y2="500" stroke="#D5DEF2" stroke-width="1"/>
<text x="630" y="514" font-size="11.5" font-weight="700" font-style="normal" fill="#12245B">PK message_id</text>
<line x1="620" y1="520" x2="900" y2="520" stroke="#D5DEF2" stroke-width="1"/>
<text x="630" y="534" font-size="11.5" font-weight="400" font-style="italic" fill="#333">FK sent_by (mgmt/EC member)</text>
<line x1="620" y1="540" x2="900" y2="540" stroke="#D5DEF2" stroke-width="1"/>
<text x="630" y="554" font-size="11.5" font-weight="400" font-style="normal" fill="#333">subject</text>
<line x1="620" y1="560" x2="900" y2="560" stroke="#D5DEF2" stroke-width="1"/>
<text x="630" y="574" font-size="11.5" font-weight="400" font-style="normal" fill="#333">body</text>
<line x1="620" y1="580" x2="900" y2="580" stroke="#D5DEF2" stroke-width="1"/>
<text x="630" y="594" font-size="11.5" font-weight="400" font-style="normal" fill="#333">channels (email|whatsapp)</text>
<line x1="620" y1="600" x2="900" y2="600" stroke="#D5DEF2" stroke-width="1"/>
<text x="630" y="614" font-size="11.5" font-weight="400" font-style="normal" fill="#333">created_at</text>
<rect x="980" y="470" width="280" height="130" rx="4" fill="#FFFFFF" stroke="#3A5BC7" stroke-width="1.5"/>
<path d="M 980 500 V 476 Q 980 470 986 470 H 1254 Q 1260 470 1260 476 V 500 Z" fill="#EAF2FF" stroke="#3A5BC7" stroke-width="1.5"/>
<text x="1120" y="490" font-size="13" font-weight="700" fill="#12245B" text-anchor="middle">MessageRecipient</text>
<line x1="980" y1="500" x2="1260" y2="500" stroke="#D5DEF2" stroke-width="1"/>
<text x="990" y="514" font-size="11.5" font-weight="700" font-style="normal" fill="#12245B">PK recipient_id</text>
<line x1="980" y1="520" x2="1260" y2="520" stroke="#D5DEF2" stroke-width="1"/>
<text x="990" y="534" font-size="11.5" font-weight="400" font-style="italic" fill="#333">FK message_id</text>
<line x1="980" y1="540" x2="1260" y2="540" stroke="#D5DEF2" stroke-width="1"/>
<text x="990" y="554" font-size="11.5" font-weight="400" font-style="italic" fill="#333">FK member_id</text>
<line x1="980" y1="560" x2="1260" y2="560" stroke="#D5DEF2" stroke-width="1"/>
<text x="990" y="574" font-size="11.5" font-weight="400" font-style="normal" fill="#333">channel</text>
<line x1="980" y1="580" x2="1260" y2="580" stroke="#D5DEF2" stroke-width="1"/>
<text x="990" y="594" font-size="11.5" font-weight="400" font-style="normal" fill="#333">status (queued|sent|delivered|failed)</text>
<rect x="520" y="700" width="280" height="50" rx="4" fill="#FFFFFF" stroke="#3A5BC7" stroke-width="1.5"/>
<path d="M 520 730 V 706 Q 520 700 526 700 H 794 Q 800 700 800 706 V 730 Z" fill="#F0F0F0" stroke="#3A5BC7" stroke-width="1.5"/>
<text x="660" y="720" font-size="13" font-weight="700" fill="#12245B" text-anchor="middle">Project (ref → other tab)</text>
<line x1="520" y1="730" x2="800" y2="730" stroke="#D5DEF2" stroke-width="1"/>
<text x="530" y="744" font-size="11.5" font-weight="700" font-style="normal" fill="#12245B">PK project_id</text>
<rect x="820" y="700" width="280" height="50" rx="4" fill="#FFFFFF" stroke="#3A5BC7" stroke-width="1.5"/>
<path d="M 820 730 V 706 Q 820 700 826 700 H 1094 Q 1100 700 1100 706 V 730 Z" fill="#F0F0F0" stroke="#3A5BC7" stroke-width="1.5"/>
<text x="960" y="720" font-size="13" font-weight="700" fill="#12245B" text-anchor="middle">Member (ref → other tab)</text>
<line x1="820" y1="730" x2="1100" y2="730" stroke="#D5DEF2" stroke-width="1"/>
<text x="830" y="744" font-size="11.5" font-weight="700" font-style="normal" fill="#12245B">PK member_id</text>
</svg>